<mxfile host="app.diagrams.net" agent="Mozilla/5.0 (Windows NT 10.0; Win64; x64) AppleWebKit/537.36 (KHTML, like Gecko) Chrome/131.0.0.0 Safari/537.36" version="24.8.6">
  <diagram name="Page-1" id="syV3yxrDpflKjWlZsXL0">
    <mxGraphModel dx="2537" dy="878" grid="1" gridSize="10" guides="1" tooltips="1" connect="1" arrows="1" fold="1" page="1" pageScale="1" pageWidth="850" pageHeight="1100" math="0" shadow="0">
      <root>
        <mxCell id="0" />
        <mxCell id="1" parent="0" />
        <mxCell id="R8QXoVhJhYX82q6oui_o-2" value="RGB2Gray" style="rounded=1;whiteSpace=wrap;html=1;" vertex="1" parent="1">
          <mxGeometry x="-150" y="180" width="240" height="340" as="geometry" />
        </mxCell>
        <mxCell id="R8QXoVhJhYX82q6oui_o-3" value="red_i&amp;nbsp; &amp;nbsp;[7:0]" style="text;html=1;align=center;verticalAlign=middle;whiteSpace=wrap;rounded=0;" vertex="1" parent="1">
          <mxGeometry x="-150" y="280" width="60" height="30" as="geometry" />
        </mxCell>
        <mxCell id="R8QXoVhJhYX82q6oui_o-4" value="blue_i [7:0]" style="text;html=1;align=center;verticalAlign=middle;whiteSpace=wrap;rounded=0;" vertex="1" parent="1">
          <mxGeometry x="-150" y="380" width="60" height="30" as="geometry" />
        </mxCell>
        <mxCell id="R8QXoVhJhYX82q6oui_o-5" value="green_i [7:0]" style="text;html=1;align=center;verticalAlign=middle;whiteSpace=wrap;rounded=0;" vertex="1" parent="1">
          <mxGeometry x="-150" y="330" width="60" height="30" as="geometry" />
        </mxCell>
        <mxCell id="R8QXoVhJhYX82q6oui_o-8" value="clk" style="text;html=1;align=center;verticalAlign=middle;whiteSpace=wrap;rounded=0;" vertex="1" parent="1">
          <mxGeometry x="-150" y="220" width="50" height="30" as="geometry" />
        </mxCell>
        <mxCell id="R8QXoVhJhYX82q6oui_o-9" value="rst" style="text;html=1;align=center;verticalAlign=middle;whiteSpace=wrap;rounded=0;" vertex="1" parent="1">
          <mxGeometry x="-150" y="250" width="50" height="30" as="geometry" />
        </mxCell>
        <mxCell id="R8QXoVhJhYX82q6oui_o-10" value="done_i" style="text;html=1;align=center;verticalAlign=middle;whiteSpace=wrap;rounded=0;" vertex="1" parent="1">
          <mxGeometry x="-150" y="430" width="60" height="30" as="geometry" />
        </mxCell>
        <mxCell id="R8QXoVhJhYX82q6oui_o-12" value="" style="endArrow=classic;html=1;rounded=0;entryX=-0.004;entryY=0.249;entryDx=0;entryDy=0;entryPerimeter=0;" edge="1" parent="1" target="R8QXoVhJhYX82q6oui_o-2">
          <mxGeometry width="50" height="50" relative="1" as="geometry">
            <mxPoint x="-240" y="264.88" as="sourcePoint" />
            <mxPoint x="-149" y="264.88" as="targetPoint" />
          </mxGeometry>
        </mxCell>
        <mxCell id="R8QXoVhJhYX82q6oui_o-13" value="" style="endArrow=classic;html=1;rounded=0;entryX=0;entryY=0.5;entryDx=0;entryDy=0;" edge="1" parent="1">
          <mxGeometry width="50" height="50" relative="1" as="geometry">
            <mxPoint x="-240" y="294.88" as="sourcePoint" />
            <mxPoint x="-150" y="295" as="targetPoint" />
          </mxGeometry>
        </mxCell>
        <mxCell id="R8QXoVhJhYX82q6oui_o-14" value="" style="endArrow=classic;html=1;rounded=0;entryX=0;entryY=0.5;entryDx=0;entryDy=0;" edge="1" parent="1">
          <mxGeometry width="50" height="50" relative="1" as="geometry">
            <mxPoint x="-240" y="344.88" as="sourcePoint" />
            <mxPoint x="-150" y="345" as="targetPoint" />
          </mxGeometry>
        </mxCell>
        <mxCell id="R8QXoVhJhYX82q6oui_o-15" value="" style="endArrow=classic;html=1;rounded=0;entryX=0;entryY=0.5;entryDx=0;entryDy=0;" edge="1" parent="1">
          <mxGeometry width="50" height="50" relative="1" as="geometry">
            <mxPoint x="-240" y="394.88" as="sourcePoint" />
            <mxPoint x="-150" y="395" as="targetPoint" />
          </mxGeometry>
        </mxCell>
        <mxCell id="R8QXoVhJhYX82q6oui_o-16" value="" style="endArrow=classic;html=1;rounded=0;entryX=0;entryY=0.5;entryDx=0;entryDy=0;" edge="1" parent="1">
          <mxGeometry width="50" height="50" relative="1" as="geometry">
            <mxPoint x="-240" y="444.88" as="sourcePoint" />
            <mxPoint x="-150" y="445" as="targetPoint" />
          </mxGeometry>
        </mxCell>
        <mxCell id="R8QXoVhJhYX82q6oui_o-17" value="grayscale_o [7:0]" style="text;html=1;align=center;verticalAlign=middle;whiteSpace=wrap;rounded=0;" vertex="1" parent="1">
          <mxGeometry x="20" y="260" width="70" height="30" as="geometry" />
        </mxCell>
        <mxCell id="R8QXoVhJhYX82q6oui_o-19" value="done_o" style="text;html=1;align=center;verticalAlign=middle;whiteSpace=wrap;rounded=0;" vertex="1" parent="1">
          <mxGeometry x="30" y="360" width="60" height="30" as="geometry" />
        </mxCell>
        <mxCell id="R8QXoVhJhYX82q6oui_o-20" value="" style="endArrow=classic;html=1;rounded=0;entryX=0.012;entryY=0.66;entryDx=0;entryDy=0;entryPerimeter=0;exitX=1;exitY=0.5;exitDx=0;exitDy=0;" edge="1" parent="1" source="R8QXoVhJhYX82q6oui_o-17">
          <mxGeometry width="50" height="50" relative="1" as="geometry">
            <mxPoint x="90" y="274.76" as="sourcePoint" />
            <mxPoint x="181" y="274.76" as="targetPoint" />
          </mxGeometry>
        </mxCell>
        <mxCell id="R8QXoVhJhYX82q6oui_o-21" value="" style="endArrow=classic;html=1;rounded=0;entryX=0.012;entryY=0.66;entryDx=0;entryDy=0;entryPerimeter=0;exitX=1;exitY=0.5;exitDx=0;exitDy=0;" edge="1" parent="1">
          <mxGeometry width="50" height="50" relative="1" as="geometry">
            <mxPoint x="90" y="380.24" as="sourcePoint" />
            <mxPoint x="181" y="380" as="targetPoint" />
          </mxGeometry>
        </mxCell>
        <mxCell id="R8QXoVhJhYX82q6oui_o-22" value="" style="endArrow=classic;html=1;rounded=0;entryX=0.001;entryY=0.175;entryDx=0;entryDy=0;entryPerimeter=0;" edge="1" parent="1" target="R8QXoVhJhYX82q6oui_o-2">
          <mxGeometry width="50" height="50" relative="1" as="geometry">
            <mxPoint x="-240" y="240" as="sourcePoint" />
            <mxPoint x="-149" y="234" as="targetPoint" />
          </mxGeometry>
        </mxCell>
      </root>
    </mxGraphModel>
  </diagram>
</mxfile>
